<?xml version="1.0" standalone="no"?><!DOCTYPE svg PUBLIC "-//W3C//DTD SVG 1.1//EN" "http://www.w3.org/Graphics/SVG/1.1/DTD/svg11.dtd"><svg t="1492746026641" class="icon" style="" viewBox="0 0 1024 1024" version="1.1" xmlns="http://www.w3.org/2000/svg" p-id="4541" xmlns:xlink="http://www.w3.org/1999/xlink" width="30" height="30"><defs><style type="text/css"></style></defs><path d="M956.000496 910.181745 539.663174 179.657776c-5.749176-10.094916-16.545509-16.310477-28.229086-16.310477-11.684601 0-22.43386 6.215562-28.229086 16.310477L66.912708 910.181745c-5.655027 9.907651-5.561903 22.01234 0.233324 31.826869 5.795226 9.81453 16.451361 15.84385 27.948689 15.84385l832.629616 0c11.404203 0 22.106388-6.02932 27.948689-15.84385C961.469274 932.194084 961.562398 920.089395 956.000496 910.181745zM562.845103 864.380606 460.02205 864.380606l0-93.470835L562.845103 770.909771 562.845103 864.380606zM562.845103 700.806133 460.02205 700.806133 460.02205 420.392606 562.845103 420.392606 562.845103 700.806133z" p-id="4542" fill="#f46e01"></path></svg>