<?xml version="1.0" standalone="no"?><!DOCTYPE svg PUBLIC "-//W3C//DTD SVG 1.1//EN" "http://www.w3.org/Graphics/SVG/1.1/DTD/svg11.dtd"><svg t="1492744187516" class="icon" style="" viewBox="0 0 1024 1024" version="1.1" xmlns="http://www.w3.org/2000/svg" p-id="6594" xmlns:xlink="http://www.w3.org/1999/xlink" width="22" height="22"><defs><style type="text/css"></style></defs><path d="M511.386738 940.17974 66.53019 940.17974C54.236331 940.17974 44.521756 930.425458 44.521756 917.850624L44.521756 67.099534C44.521756 54.605141 54.244011 44.770475 66.726798 44.770475L912.751502 44.770475C925.003207 44.770475 934.956544 54.830876 934.956544 67.357639L934.956544 519.279332C934.956544 531.642368 944.923079 541.66454 957.217394 541.66454 969.511708 541.66454 979.478244 531.642368 979.478244 519.279332L979.478244 67.357639C979.478244 30.156117 949.64315 0 912.751502 0L66.726798 0C29.596103 0 0 29.938233 0 67.099534L0 917.850624C0 955.166436 29.662549 984.950215 66.53019 984.950215L511.386738 984.950215C523.681109 984.950215 533.647644 974.927986 533.647644 962.564949 533.647644 950.20197 523.681109 940.17974 511.386738 940.17974ZM200.347819 223.852316C200.347819 211.48928 210.393657 201.467108 222.330027 201.467108L757.148217 201.467108C769.288647 201.467108 779.130425 211.850866 779.130425 223.852316 779.130425 236.215353 769.084587 246.237525 757.148217 246.237525L222.330027 246.237525C210.189596 246.237525 200.347819 235.853767 200.347819 223.852316ZM200.347819 402.934158C200.347819 390.571179 210.393657 380.548949 222.330027 380.548949L757.148217 380.548949C769.288647 380.548949 779.130425 390.932708 779.130425 402.934158 779.130425 415.297195 769.084587 425.319424 757.148217 425.319424L222.330027 425.319424C210.189596 425.319424 200.347819 414.935609 200.347819 402.934158ZM200.347819 582.016057C200.347819 569.65302 210.49344 559.630791 223.123228 559.630791L444.702891 559.630791C457.281365 559.630791 467.478244 570.014549 467.478244 582.016057 467.478244 594.379036 457.332622 604.401266 444.702891 604.401266L223.123228 604.401266C210.544697 604.401266 200.347819 594.017508 200.347819 582.016057ZM768 509.139684C625.777778 509.139684 512 623.553081 512 766.569813 512 909.586603 625.777778 1024 768 1024 910.222222 1024 1024 909.586603 1024 766.569813 1024 623.553081 910.222222 509.139684 768 509.139684ZM768 549.184341C807.822222 549.184341 847.644444 560.625721 881.777778 583.508366L864.711111 583.508366 768 743.687168 671.288889 583.508366 654.222222 583.508366C688.355556 566.346354 728.177778 549.184341 768 549.184341ZM768 978.234652C648.533333 978.234652 551.822222 880.983268 551.822222 760.84918 551.822222 697.921764 580.266667 634.994404 625.777778 600.670379L728.177778 760.84918 648.533333 760.84918 648.533333 800.893838 745.244444 800.893838 745.244444 829.49723 648.533333 829.49723 648.533333 869.541888 745.244444 869.541888 745.244444 932.469248 790.755556 932.469248 790.755556 869.541888 887.466667 869.541888 887.466667 829.49723 790.755556 829.49723 790.755556 800.893838 887.466667 800.893838 887.466667 760.84918 807.822222 760.84918 910.222222 600.670379C955.733333 640.715093 984.177778 697.921764 984.177778 760.84918 978.488889 886.7039 887.466667 978.234652 768 978.234652Z" p-id="6595" fill="#ffffff"></path></svg>