<?xml version="1.0" standalone="no"?><!DOCTYPE svg PUBLIC "-//W3C//DTD SVG 1.1//EN" "http://www.w3.org/Graphics/SVG/1.1/DTD/svg11.dtd"><svg t="1492745009653" class="icon" style="" viewBox="0 0 1024 1024" version="1.1" xmlns="http://www.w3.org/2000/svg" p-id="8689" xmlns:xlink="http://www.w3.org/1999/xlink" width="22" height="22"><defs><style type="text/css"></style></defs><path d="M363.6 495c7.6-2.9 16.8-5.5 27.7-12.4 16-10 28.2-30.7-1.4-56-98.1-141.4-62.4-235.4-47.5-270.8-12.5-4.8-26.6-7.7-42.8-7.7h-5.1c-93.9 0-118.9 85.4-120.8 133.3-1.3 113 67.8 157.9 67.8 157.9s4.3 5.9 4.3 23.2c0 3.9-2.6 15.7-7 19.2-38.5 31.2-167.2 63.7-176.2 131-4.8 19.4-1.9 39.6-1 58.3 21.1 16.2 88.5 29.9 88.5 29.9s5.6-17 11.3-45.1c8.4-41.6 64.7-108.9 202.2-160.8z m596.1 117.1c-9.2-67.2-141.3-99.6-180.9-130.8-4.5-3.6-7.1-15.3-7.1-19.2 0-17.2 4.4-23.1 4.4-23.1s70.8-44.9 69.5-157.7c-1.9-47.9-31.8-133.2-123.8-133.2h-5.2c-19.8 0-36.5 3.8-50.7 9.9 19.7 65.9 43.3 186.8-56.2 267.8-39 58.2 91 92.3 70.8 83.2 117.7 52.9 149.3 93.4 158 135.4 7.2 35 11.3 56.4 11.3 56.4s88.2-13.5 111-30.5c0.8-18.6 3.7-38.8-1.1-58.2zM576 483.2c-5.6-4.4-8.8-19-8.8-23.9 0-21.4 5.4-28.7 5.4-28.7-0.1 0.1 87-47 85.3-196-2.4-59.5-39-165.5-151.8-165.5h-6.4c-118.1 0-149.5 106-151.9 165.5-1.6 140.2 85.3 196 85.3 196s10.5 12 10.5 33.4c0 4.9-8.4 14.8-13.9 19.2-48.5 38.7-223 77.8-234.3 161.3-8.8 35.4-60.6 91.6 111.7 114.2 47.5 6.2 111.9 9.9 199 9.9 399.6 0 316.9-77.4 305.7-122.8C800.4 562.3 624.4 522 576 483.2z" fill="#ffffff" p-id="8690"></path></svg>