<?xml version="1.0" standalone="no"?><!DOCTYPE svg PUBLIC "-//W3C//DTD SVG 1.1//EN" "http://www.w3.org/Graphics/SVG/1.1/DTD/svg11.dtd"><svg t="1492745235576" class="icon" style="" viewBox="0 0 1024 1024" version="1.1" xmlns="http://www.w3.org/2000/svg" p-id="10738" xmlns:xlink="http://www.w3.org/1999/xlink" width="22" height="22"><defs><style type="text/css"></style></defs><path d="M206.841394 351.927281l359.7699 0c6.54609 0 11.849886-5.418406 11.849886-12.161994 0-6.698562-5.303796-12.135388-11.849886-12.135388L206.841394 327.629899c-6.54916 0-11.850909 5.436826-11.850909 12.135388C194.990484 346.508875 200.292234 351.927281 206.841394 351.927281z" p-id="10739" fill="#ffffff"></path><path d="M952.363961 201.86659 846.902024 112.140033c-7.692193-6.545066-19.10308-5.455245-25.492604 2.452865L706.04495 257.621429l0-43.36567c0-8.357342-3.246951-16.346293-9.023514-22.224164L579.461973 73.074296c-5.652743-5.743818-13.30912-8.952906-21.314445-8.952906L93.022115 64.12139c-16.749476 0-30.337959 13.929244-30.337959 31.15865l0 832.546573c0 17.23043 13.588483 31.187303 30.337959 31.187303l582.650083 0c16.783245 0 30.372751-13.956873 30.372751-31.187303L706.04495 536.474414l248.743224-308.380486C961.161325 220.186841 960.107319 208.457706 952.363961 201.86659zM645.334239 896.641357 123.37747 896.641357 123.37747 126.484739l403.222551 0 0 101.627608c0 10.323113 8.146541 18.708084 18.170848 18.708084l100.56337 0 0 86.056981-89.503477 110.959138L206.841394 443.836551c-6.54916 0-11.850909 5.418406-11.850909 12.135388 0 6.726192 5.301749 12.163017 11.850909 12.163017l329.413522 0-70.066799 86.822414L206.841394 554.957371c-6.54916 0-11.850909 5.446036-11.850909 12.145621 0 6.743588 5.301749 12.161994 11.850909 12.161994L446.594873 579.264986l-21.629623 26.832112c-1.598404 1.920746-2.739391 4.174066-3.458775 6.563486l-16.187681 55.736419L206.841394 668.397003c-6.54916 0-11.850909 5.455245-11.850909 12.163017 0 6.725168 5.301749 12.189623 11.850909 12.189623l191.438077 0-26.721595 91.844801L206.841394 784.594445c-6.54916 0-11.850909 5.463432-11.850909 12.172227 0 6.715959 5.301749 12.153808 11.850909 12.153808l171.229826 0c1.738597 0 3.370771-0.424672 4.863774-1.118474 4.599761 1.62194 9.725502 1.425466 14.220886-0.983397l155.549705-82.529645c2.124384-1.181919 4.036943-2.77009 5.617951-4.708232l87.009679-107.848287L645.333216 896.641357zM532.849352 692.747597l-0.122797 0.171915-60.533678 32.122605-36.429701-31.022551 0.36839-1.270946 7.057743-24.352641 12.025894-41.436738 382.574279-474.228745 33.779338 28.78765-0.228197 0.243547L507.690346 632.556727c-4.248767 5.247514-3.545756 13.110599 1.579985 17.472953 5.178953 4.364401 12.799514 3.63376 17.047258-1.657756L889.93205 197.574844 890.126478 197.286272l25.140587 21.395286L532.849352 692.747597z" p-id="10740" fill="#ffffff"></path></svg>