<?xml version="1.0" standalone="no"?><!DOCTYPE svg PUBLIC "-//W3C//DTD SVG 1.1//EN" "http://www.w3.org/Graphics/SVG/1.1/DTD/svg11.dtd"><svg t="1492745352172" class="icon" style="" viewBox="0 0 1024 1024" version="1.1" xmlns="http://www.w3.org/2000/svg" p-id="11438" xmlns:xlink="http://www.w3.org/1999/xlink" width="22" height="22"><defs><style type="text/css"></style></defs><path d="M512 0C229.205333 0 0 229.205333 0 512s229.205333 512 512 512 512-229.205333 512-512S794.794667 0 512 0zM744.732444 744.732444c0 77.084444-62.577778 139.662222-139.605333 139.662222L418.929778 884.394667c-77.084444 0-139.662222-62.577778-139.662222-139.662222l0-93.127111c0-68.209778 49.095111-124.871111 113.891556-137.045333-40.846222-34.133333-67.413333-84.821333-67.413333-142.222222 0-102.798222 83.399111-186.140444 186.197333-186.140444 102.855111 0 186.140444 83.342222 186.140444 186.140444 0 57.400889-26.567111 108.088889-67.356444 142.222222 64.796444 12.117333 113.891556 68.778667 113.891556 137.045333L744.618667 744.732444z" p-id="11439" fill="#ffffff"></path></svg>