<?xml version="1.0" standalone="no"?><!DOCTYPE svg PUBLIC "-//W3C//DTD SVG 1.1//EN" "http://www.w3.org/Graphics/SVG/1.1/DTD/svg11.dtd"><svg t="1492745110733" class="icon" style="" viewBox="0 0 1024 1024" version="1.1" xmlns="http://www.w3.org/2000/svg" p-id="9428" xmlns:xlink="http://www.w3.org/1999/xlink" width="22" height="22"><defs><style type="text/css"></style></defs><path d="M394.24 555.584l-208 0c-41.088 0-74.304 33.344-74.304 74.24l0 207.872c0 41.024 33.344 74.304 74.304 74.304l208.128 0c19.904 0 38.464-7.68 52.48-21.76 14.016-14.016 21.696-32.64 21.568-52.544L468.416 629.824C468.48 588.8 435.264 555.584 394.24 555.584L394.24 555.584zM407.744 838.016c0 3.584-1.344 6.656-3.904 9.536-1.472 1.408-4.608 3.84-9.344 3.84L186.304 851.392c-7.424 0-13.504-6.016-13.504-13.44L172.8 629.824c0-7.36 6.08-13.504 13.504-13.504l207.872 0c7.424 0 13.504 6.144 13.504 13.504L407.744 838.016 407.744 838.016 407.744 838.016z" p-id="9429" fill="#ffffff"></path><path d="M394.24 112l-208 0c-40.96 0-74.304 33.344-74.304 74.304l0 207.872c0 41.024 33.344 74.24 74.304 74.24l208.128 0c19.904 0 38.464-7.68 52.48-21.632C460.928 432.64 468.608 413.952 468.48 394.176L468.48 186.304C468.48 145.344 435.264 112 394.24 112L394.24 112zM407.744 394.432c0 3.584-1.344 6.72-3.904 9.6-1.472 1.408-4.608 3.84-9.344 3.84L186.304 407.872C178.88 407.808 172.8 401.728 172.8 394.304l0-208C172.8 178.88 178.88 172.8 186.304 172.8l207.872 0c7.424 0 13.504 6.08 13.504 13.504L407.744 394.432 407.744 394.432 407.744 394.432z" p-id="9430" fill="#ffffff"></path><path d="M837.824 555.584l-208 0c-41.024 0-74.24 33.344-74.24 74.24l0 207.872c0 41.024 33.28 74.304 74.24 74.304l208.128 0c19.904 0 38.4-7.68 52.416-21.76 14.016-14.016 21.696-32.64 21.632-52.544L912 629.824C912.064 588.8 878.656 555.584 837.824 555.584L837.824 555.584zM851.2 838.016c0 3.584-1.344 6.656-3.904 9.536-1.408 1.408-4.672 3.84-9.344 3.84L629.824 851.392c-7.36 0-13.504-6.016-13.504-13.44L616.32 629.824c0-7.36 6.144-13.504 13.504-13.504l207.872 0c7.488 0 13.504 6.144 13.504 13.504L851.2 838.016 851.2 838.016z" p-id="9431" fill="#ffffff"></path><path d="M837.824 112l-208 0c-41.024 0-74.24 33.344-74.24 74.304l0 207.872c0 41.024 33.28 74.24 74.24 74.24l208.128 0c19.904 0 38.4-7.68 52.416-21.632 14.016-14.08 21.696-32.768 21.632-52.608L912 186.304C912.064 145.344 878.656 112 837.824 112L837.824 112zM851.2 394.432c0 3.584-1.344 6.72-3.904 9.6-1.408 1.408-4.672 3.84-9.344 3.84L629.824 407.872c-7.36 0-13.504-6.08-13.504-13.504l0-208C616.32 178.88 622.464 172.8 629.824 172.8l207.872 0c7.488 0 13.504 6.08 13.504 13.504L851.2 394.432 851.2 394.432z" p-id="9432" fill="#ffffff"></path></svg>