<?xml version="1.0" standalone="no"?><!DOCTYPE svg PUBLIC "-//W3C//DTD SVG 1.1//EN" "http://www.w3.org/Graphics/SVG/1.1/DTD/svg11.dtd"><svg t="1492745430194" class="icon" style="" viewBox="0 0 1027 1024" version="1.1" xmlns="http://www.w3.org/2000/svg" p-id="2106" xmlns:xlink="http://www.w3.org/1999/xlink" width="22.064453125" height="22"><defs><style type="text/css"></style></defs><path d="M746.666667 362.666667c0 11.7824-9.553067 21.333333-21.333333 21.333333L298.666667 384c-11.7824 0-21.333333-9.550933-21.333333-21.333333l0 0c0-11.7824 9.550933-21.333333 21.333333-21.333333l426.666667 0C737.1136 341.333333 746.666667 350.884267 746.666667 362.666667L746.666667 362.666667z" p-id="2107" fill="#ffffff"></path><path d="M1017.1648 317.303467l-165.546667-272.085333C833.937067 18.0608 802.673067 0 767.0272 0L259.584 0C224.064 0 192.904533 17.941333 175.189333 44.9408L9.416533 318.018133c-5.988267 12.398933-9.3504 26.216533-9.3504 40.8 0 16.682667 4.420267 32.349867 12.123733 46.043733l492.6336 614.875733c1.873067 2.574933 4.962133 4.264533 8.465067 4.264533 3.4944 0 6.568533-1.681067 8.443733-4.241067l492.0192-614.436267c8.1152-13.9648 12.759467-30.065067 12.759467-47.221333C1026.513067 343.517867 1023.146667 329.700267 1017.1648 317.303467zM976.352 381.9008 513.282133 960.189867 49.800533 381.700267c-3.5392-7.185067-5.3312-14.869333-5.3312-22.882133 0-7.3216 1.495467-14.397867 4.450133-21.064533L213.0368 67.4048c10.321067-15.336533 27.671467-24.475733 46.5472-24.475733l507.4432 0c18.9952 0 36.4096 9.218133 46.7072 24.693333l163.933867 269.435733c2.946133 6.658133 4.443733 13.728 4.443733 21.045333C982.109867 366.496 980.1728 374.4896 976.352 381.9008z" p-id="2108" fill="#ffffff"></path></svg>