<?xml version="1.0" standalone="no"?><!DOCTYPE svg PUBLIC "-//W3C//DTD SVG 1.1//EN" "http://www.w3.org/Graphics/SVG/1.1/DTD/svg11.dtd"><svg t="1492745602589" class="icon" style="" viewBox="0 0 1024 1024" version="1.1" xmlns="http://www.w3.org/2000/svg" p-id="2859" xmlns:xlink="http://www.w3.org/1999/xlink" width="19" height="19"><defs><style type="text/css"></style></defs><path d="M512 292.571429c-120.685714 0-219.428571 98.742857-219.428571 219.428571s98.742857 219.428571 219.428571 219.428571 219.428571-98.742857 219.428571-219.428571-98.742857-219.428571-219.428571-219.428571z m0 365.714285c-80.457143 0-146.285714-65.828571-146.285714-146.285714s65.828571-146.285714 146.285714-146.285714 146.285714 65.828571 146.285714 146.285714-65.828571 146.285714-146.285714 146.285714z m0-585.142857C270.628571 73.142857 73.142857 270.628571 73.142857 512s197.485714 438.857143 438.857143 438.857143 438.857143-197.485714 438.857143-438.857143S753.371429 73.142857 512 73.142857z m0 804.571429C310.857143 877.714286 146.285714 713.142857 146.285714 512S310.857143 146.285714 512 146.285714s365.714286 164.571429 365.714286 365.714286-164.571429 365.714286-365.714286 365.714286z" fill="#ffffff" p-id="2860"></path></svg>