<?xml version="1.0" standalone="no"?><!DOCTYPE svg PUBLIC "-//W3C//DTD SVG 1.1//EN" "http://www.w3.org/Graphics/SVG/1.1/DTD/svg11.dtd"><svg t="1492744088981" class="icon" style="" viewBox="0 0 1024 1024" version="1.1" xmlns="http://www.w3.org/2000/svg" p-id="5279" xmlns:xlink="http://www.w3.org/1999/xlink" width="22" height="22"><defs><style type="text/css"></style></defs><path d="M915.2 361.6h-198.4l-150.4-166.4c12.8-16 19.2-35.2 19.2-54.4 0-48-38.4-86.4-86.4-86.4S416 92.8 416 140.8c0 19.2 6.4 35.2 16 48l-153.6 172.8H108.8c-25.6 0-48 22.4-48 48v512c0 25.6 22.4 48 48 48h806.4c25.6 0 48-22.4 48-48v-512c0-25.6-22.4-48-48-48zM486.4 224h22.4l121.6 137.6h-268.8L486.4 224zM192 502.4h172.8c16 0 28.8 12.8 28.8 28.8s-12.8 28.8-28.8 28.8H192c-16 0-28.8-12.8-28.8-28.8s12.8-28.8 28.8-28.8z m336 348.8H192c-16 0-28.8-12.8-28.8-28.8s12.8-28.8 28.8-28.8h332.8c16 0 28.8 12.8 28.8 28.8 3.2 16-9.6 28.8-25.6 28.8z m281.6-147.2H192c-16 0-28.8-12.8-28.8-28.8s12.8-28.8 28.8-28.8h617.6c16 0 28.8 12.8 28.8 28.8s-12.8 28.8-28.8 28.8z" p-id="5280" fill="#ffffff"></path></svg>